<?xml version="1.0" encoding="iso-8859-1"?>
<!DOCTYPE svg PUBLIC "-//W3C//DTD SVG 1.1//EN" "http://www.w3.org/Graphics/SVG/1.1/DTD/svg11.dtd">
<svg 
 version="1.1" xmlns="http://www.w3.org/2000/svg" xmlns:xlink="http://www.w3.org/1999/xlink" x="0px" y="0px" width="512px"
	 height="512px" viewBox="0 0 512 512" style="enable-background:new 0 0 512 512;" xml:space="preserve"
><g fill="#b1d9e7" id="afcae5a789ccd549f9c6e2a2f812e247"><g></g><path style="display: inline; " d="M361.826,0.5H150.166L0.5,150.166v211.669L150.166,511.5h211.661L511.5,361.835
		V150.166L361.826,0.5z M123.9,300.347c-2.612,4.679-6.155,8.471-10.634,11.369c-4.479,2.898-9.689,4.978-15.632,6.242
		c-5.938,1.264-12.213,1.896-18.813,1.896c-6.774,0-13.22-0.574-19.333-1.722c-6.113-1.152-11.411-2.874-15.89-5.169v-27.559
		c4.994,4.191,10.421,7.335,16.276,9.432c5.855,2.096,11.769,3.144,17.74,3.144c3.501,0,6.558-0.316,9.169-0.948
		c2.612-0.632,4.795-1.506,6.546-2.628c1.75-1.119,3.056-2.438,3.917-3.959c0.861-1.522,1.293-3.173,1.293-4.953
		c0-2.407-0.69-4.562-2.067-6.458s-3.26-3.643-5.643-5.252c-2.378-1.609-5.207-3.156-8.479-4.649
		c-3.273-1.493-6.804-3.015-10.592-4.566c-9.648-4.017-16.838-8.928-21.575-14.725c-4.736-5.797-7.103-12.8-7.103-21.009
		c0-6.434,1.293-11.96,3.875-16.58s6.101-8.425,10.55-11.407c4.445-2.986,9.602-5.181,15.457-6.591
		c5.855-1.406,12.056-2.108,18.597-2.108c6.433,0,12.13,0.387,17.096,1.164c4.965,0.773,9.544,1.963,13.736,3.572v25.746
		c-2.067-1.431-4.321-2.695-6.762-3.789c-2.437-1.089-4.948-1.992-7.535-2.711c-2.583-0.719-5.152-1.248-7.706-1.593
		s-4.982-0.516-7.277-0.516c-3.156,0-6.026,0.299-8.612,0.902c-2.583,0.603-4.762,1.452-6.542,2.541s-3.161,2.396-4.134,3.917
		c-0.977,1.522-1.463,3.231-1.463,5.123c0,2.067,0.544,3.917,1.634,5.556c1.089,1.638,2.641,3.185,4.649,4.649
		c2.013,1.464,4.45,2.903,7.319,4.308c2.874,1.406,6.117,2.853,9.731,4.346c4.94,2.067,9.373,4.263,13.307,6.591
		c3.93,2.325,7.302,4.949,10.118,7.876c2.811,2.928,4.965,6.271,6.458,10.034c1.493,3.76,2.237,8.139,2.237,13.133
		C127.817,289.884,126.512,295.668,123.9,300.347z M234.858,216.86H199.64V317.7h-27.904V216.86h-35.048v-22.647h98.17V216.86z
		 M341.254,302.026c-11.282,11.886-25.995,17.828-44.135,17.828c-17.682,0-32.091-5.756-43.228-17.267
		c-11.141-11.511-16.709-26.511-16.709-44.995c0-19.52,5.656-35.306,16.967-47.366c11.307-12.051,26.294-18.081,44.949-18.081
		c17.624,0,31.88,5.772,42.759,17.308c10.878,11.54,16.317,26.756,16.317,45.64C358.175,274.501,352.532,290.146,341.254,302.026z
		 M455.526,263.664c-8.929,7.664-20.855,11.494-35.78,11.494h-13.262V317.7h-27.816V194.212h43.573
		c31.118,0,46.676,13.12,46.676,39.353C468.917,245.965,464.454,256,455.526,263.664z M320.715,226.761
		c5.452,7.12,8.18,17.083,8.18,29.883c0,12.284-2.811,21.887-8.438,28.807c-5.626,6.915-13.232,10.375-22.822,10.375
		c-9.298,0-16.821-3.56-22.56-10.679c-5.743-7.12-8.612-16.792-8.612-29.019c0-12.056,2.869-21.745,8.612-29.064
		c5.738-7.319,13.49-10.979,23.25-10.979C307.799,216.086,315.259,219.646,320.715,226.761z M439.637,234.6
		c0,12.975-7.406,19.462-22.215,19.462h-10.938v-38.496h10.938C432.23,215.566,439.637,221.913,439.637,234.6z"></path></g></svg>